<mxfile host="app.diagrams.net" modified="2024-07-15T12:29:26.468Z" agent="Mozilla/5.0 (Macintosh; Intel Mac OS X 10_15_7) AppleWebKit/605.1.15 (KHTML, like Gecko) Version/17.5 Safari/605.1.15" etag="hacGfbZ9ctxjvGKncBP7" version="24.6.5" type="device">
  <diagram name="Page-1" id="uHuE6cg2GW2eRnbbnOSD">
    <mxGraphModel dx="1405" dy="2048" grid="1" gridSize="10" guides="1" tooltips="1" connect="1" arrows="1" fold="1" page="1" pageScale="1" pageWidth="827" pageHeight="1169" math="0" shadow="0">
      <root>
        <mxCell id="0" />
        <mxCell id="1" parent="0" />
        <mxCell id="J9xpBMAO4fcrb7Eu_Uhc-46" value="" style="rounded=1;whiteSpace=wrap;html=1;fillColor=#dae8fc;strokeColor=#8FBCFC;" vertex="1" parent="1">
          <mxGeometry x="522" y="220" width="158" height="180" as="geometry" />
        </mxCell>
        <mxCell id="J9xpBMAO4fcrb7Eu_Uhc-45" value="" style="rounded=1;whiteSpace=wrap;html=1;fillColor=#dae8fc;strokeColor=#8FBCFC;" vertex="1" parent="1">
          <mxGeometry x="303" y="220" width="151" height="180" as="geometry" />
        </mxCell>
        <mxCell id="J9xpBMAO4fcrb7Eu_Uhc-40" value="" style="rounded=1;whiteSpace=wrap;html=1;fillColor=#dae8fc;strokeColor=#8FBCFC;" vertex="1" parent="1">
          <mxGeometry x="1276" y="220" width="160" height="180" as="geometry" />
        </mxCell>
        <mxCell id="J9xpBMAO4fcrb7Eu_Uhc-32" value="" style="rounded=1;whiteSpace=wrap;html=1;fillColor=#dae8fc;strokeColor=#8FBCFC;" vertex="1" parent="1">
          <mxGeometry x="1006" y="220" width="190" height="180" as="geometry" />
        </mxCell>
        <mxCell id="J9xpBMAO4fcrb7Eu_Uhc-31" value="" style="rounded=1;whiteSpace=wrap;html=1;fillColor=#dae8fc;strokeColor=#8FBCFC;" vertex="1" parent="1">
          <mxGeometry x="754" y="140" width="180" height="260" as="geometry" />
        </mxCell>
        <mxCell id="J9xpBMAO4fcrb7Eu_Uhc-33" style="edgeStyle=orthogonalEdgeStyle;rounded=0;orthogonalLoop=1;jettySize=auto;html=1;entryX=0.5;entryY=0;entryDx=0;entryDy=0;exitX=1;exitY=0.5;exitDx=0;exitDy=0;strokeWidth=2;curved=1;" edge="1" parent="1" source="WT9Lt3a_oKw2sSTHLiXZ-1" target="WT9Lt3a_oKw2sSTHLiXZ-8">
          <mxGeometry relative="1" as="geometry" />
        </mxCell>
        <mxCell id="WT9Lt3a_oKw2sSTHLiXZ-1" value="All Artists&lt;div&gt;Page&lt;/div&gt;" style="rounded=0;whiteSpace=wrap;html=1;strokeWidth=2;fontSize=16;fontStyle=1" parent="1" vertex="1">
          <mxGeometry x="290" y="240" width="110" height="60" as="geometry" />
        </mxCell>
        <mxCell id="J9xpBMAO4fcrb7Eu_Uhc-2" value="" style="edgeStyle=orthogonalEdgeStyle;rounded=0;orthogonalLoop=1;jettySize=auto;html=1;exitX=1;exitY=0.5;exitDx=0;exitDy=0;entryX=0.5;entryY=0;entryDx=0;entryDy=0;strokeWidth=2;curved=1;" edge="1" parent="1" source="WT9Lt3a_oKw2sSTHLiXZ-3" target="J9xpBMAO4fcrb7Eu_Uhc-1">
          <mxGeometry relative="1" as="geometry">
            <Array as="points">
              <mxPoint x="660" y="270" />
            </Array>
          </mxGeometry>
        </mxCell>
        <mxCell id="WT9Lt3a_oKw2sSTHLiXZ-3" value="Song List&lt;div&gt;Pages&lt;/div&gt;" style="rounded=0;whiteSpace=wrap;html=1;strokeWidth=2;fontSize=16;fontStyle=1" parent="1" vertex="1">
          <mxGeometry x="510" y="240" width="110" height="60" as="geometry" />
        </mxCell>
        <mxCell id="J9xpBMAO4fcrb7Eu_Uhc-17" style="edgeStyle=orthogonalEdgeStyle;rounded=0;orthogonalLoop=1;jettySize=auto;html=1;entryX=0;entryY=0.5;entryDx=0;entryDy=0;curved=1;strokeWidth=2;" edge="1" parent="1" source="WT9Lt3a_oKw2sSTHLiXZ-4" target="J9xpBMAO4fcrb7Eu_Uhc-16">
          <mxGeometry relative="1" as="geometry" />
        </mxCell>
        <mxCell id="WT9Lt3a_oKw2sSTHLiXZ-4" value="ID of each song part" style="rounded=0;whiteSpace=wrap;html=1;strokeWidth=2;fontSize=16;dashed=1;" parent="1" vertex="1">
          <mxGeometry x="830" y="320" width="110" height="60" as="geometry" />
        </mxCell>
        <mxCell id="WT9Lt3a_oKw2sSTHLiXZ-6" value="Lazy Loading&lt;div&gt;Problem&lt;/div&gt;" style="rounded=1;whiteSpace=wrap;html=1;strokeWidth=2;fontSize=16;glass=0;fontStyle=3;strokeColor=#000000;fontColor=#FF001C;" parent="1" vertex="1">
          <mxGeometry x="794" y="160" width="130" height="60" as="geometry" />
        </mxCell>
        <mxCell id="WT9Lt3a_oKw2sSTHLiXZ-14" value="" style="edgeStyle=orthogonalEdgeStyle;rounded=0;orthogonalLoop=1;jettySize=auto;html=1;entryX=0;entryY=0.5;entryDx=0;entryDy=0;strokeWidth=2;curved=1;" parent="1" source="WT9Lt3a_oKw2sSTHLiXZ-8" target="WT9Lt3a_oKw2sSTHLiXZ-3" edge="1">
          <mxGeometry relative="1" as="geometry" />
        </mxCell>
        <mxCell id="WT9Lt3a_oKw2sSTHLiXZ-8" value="Artist&lt;div&gt;IDs&lt;/div&gt;" style="rounded=0;whiteSpace=wrap;html=1;strokeWidth=2;fontSize=16;dashed=1;fontStyle=0" parent="1" vertex="1">
          <mxGeometry x="400" y="325" width="69" height="55" as="geometry" />
        </mxCell>
        <mxCell id="J9xpBMAO4fcrb7Eu_Uhc-12" style="edgeStyle=orthogonalEdgeStyle;rounded=0;orthogonalLoop=1;jettySize=auto;html=1;entryX=0;entryY=0.5;entryDx=0;entryDy=0;strokeWidth=2;curved=1;" edge="1" parent="1" source="J9xpBMAO4fcrb7Eu_Uhc-1" target="J9xpBMAO4fcrb7Eu_Uhc-11">
          <mxGeometry relative="1" as="geometry" />
        </mxCell>
        <mxCell id="J9xpBMAO4fcrb7Eu_Uhc-1" value="Song&lt;div&gt;Lists&lt;/div&gt;" style="rounded=0;whiteSpace=wrap;html=1;strokeWidth=2;fontSize=16;dashed=1;fontStyle=0" vertex="1" parent="1">
          <mxGeometry x="620" y="325" width="80" height="55" as="geometry" />
        </mxCell>
        <mxCell id="J9xpBMAO4fcrb7Eu_Uhc-13" style="edgeStyle=orthogonalEdgeStyle;rounded=0;orthogonalLoop=1;jettySize=auto;html=1;entryX=0.5;entryY=0;entryDx=0;entryDy=0;exitX=1;exitY=0.5;exitDx=0;exitDy=0;strokeWidth=2;curved=1;" edge="1" parent="1" source="J9xpBMAO4fcrb7Eu_Uhc-11" target="WT9Lt3a_oKw2sSTHLiXZ-4">
          <mxGeometry relative="1" as="geometry" />
        </mxCell>
        <mxCell id="J9xpBMAO4fcrb7Eu_Uhc-11" value="Song&lt;div&gt;Pages&lt;/div&gt;" style="rounded=0;whiteSpace=wrap;html=1;strokeWidth=2;fontSize=16;fontStyle=1" vertex="1" parent="1">
          <mxGeometry x="740" y="240" width="90" height="60" as="geometry" />
        </mxCell>
        <mxCell id="J9xpBMAO4fcrb7Eu_Uhc-14" value="" style="endArrow=none;html=1;rounded=0;entryX=0.5;entryY=1;entryDx=0;entryDy=0;curved=1;strokeWidth=2;strokeColor=#000000;dashed=1;" edge="1" parent="1" target="WT9Lt3a_oKw2sSTHLiXZ-6">
          <mxGeometry width="50" height="50" relative="1" as="geometry">
            <mxPoint x="870" y="280" as="sourcePoint" />
            <mxPoint x="870" y="470" as="targetPoint" />
            <Array as="points">
              <mxPoint x="850" y="250" />
            </Array>
          </mxGeometry>
        </mxCell>
        <mxCell id="J9xpBMAO4fcrb7Eu_Uhc-19" style="edgeStyle=orthogonalEdgeStyle;rounded=0;orthogonalLoop=1;jettySize=auto;html=1;entryX=0.5;entryY=0;entryDx=0;entryDy=0;exitX=1;exitY=0.5;exitDx=0;exitDy=0;strokeWidth=2;curved=1;" edge="1" parent="1" source="J9xpBMAO4fcrb7Eu_Uhc-16" target="J9xpBMAO4fcrb7Eu_Uhc-18">
          <mxGeometry relative="1" as="geometry" />
        </mxCell>
        <mxCell id="J9xpBMAO4fcrb7Eu_Uhc-16" value="Song part&lt;div&gt;API&lt;/div&gt;" style="rounded=0;whiteSpace=wrap;html=1;strokeWidth=2;fontSize=16;fontStyle=1" vertex="1" parent="1">
          <mxGeometry x="980" y="240" width="110" height="60" as="geometry" />
        </mxCell>
        <mxCell id="J9xpBMAO4fcrb7Eu_Uhc-23" style="edgeStyle=orthogonalEdgeStyle;rounded=0;orthogonalLoop=1;jettySize=auto;html=1;entryX=0;entryY=0.5;entryDx=0;entryDy=0;curved=1;strokeWidth=2;" edge="1" parent="1" source="J9xpBMAO4fcrb7Eu_Uhc-18" target="J9xpBMAO4fcrb7Eu_Uhc-21">
          <mxGeometry relative="1" as="geometry" />
        </mxCell>
        <mxCell id="J9xpBMAO4fcrb7Eu_Uhc-18" value="Data of each&lt;div&gt;song part&lt;/div&gt;" style="rounded=0;whiteSpace=wrap;html=1;strokeWidth=2;fontSize=16;dashed=1;" vertex="1" parent="1">
          <mxGeometry x="1090" y="320" width="120" height="60" as="geometry" />
        </mxCell>
        <mxCell id="J9xpBMAO4fcrb7Eu_Uhc-24" style="edgeStyle=orthogonalEdgeStyle;rounded=0;orthogonalLoop=1;jettySize=auto;html=1;entryX=0.5;entryY=0;entryDx=0;entryDy=0;exitX=1;exitY=0.5;exitDx=0;exitDy=0;strokeWidth=2;curved=1;" edge="1" parent="1" source="J9xpBMAO4fcrb7Eu_Uhc-21" target="J9xpBMAO4fcrb7Eu_Uhc-22">
          <mxGeometry relative="1" as="geometry" />
        </mxCell>
        <mxCell id="J9xpBMAO4fcrb7Eu_Uhc-21" value="Converters" style="rounded=0;whiteSpace=wrap;html=1;strokeWidth=2;fontSize=16;fontStyle=1" vertex="1" parent="1">
          <mxGeometry x="1250" y="240" width="110" height="60" as="geometry" />
        </mxCell>
        <mxCell id="J9xpBMAO4fcrb7Eu_Uhc-22" value="Target&lt;div&gt;Data Format&lt;/div&gt;" style="rounded=0;whiteSpace=wrap;html=1;strokeWidth=2;fontSize=16;dashed=1;" vertex="1" parent="1">
          <mxGeometry x="1360" y="320" width="120" height="60" as="geometry" />
        </mxCell>
        <mxCell id="J9xpBMAO4fcrb7Eu_Uhc-35" style="edgeStyle=orthogonalEdgeStyle;rounded=0;orthogonalLoop=1;jettySize=auto;html=1;entryX=0.25;entryY=0;entryDx=0;entryDy=0;curved=1;dashed=1;strokeWidth=2;" edge="1" parent="1" source="J9xpBMAO4fcrb7Eu_Uhc-25" target="J9xpBMAO4fcrb7Eu_Uhc-31">
          <mxGeometry relative="1" as="geometry" />
        </mxCell>
        <mxCell id="J9xpBMAO4fcrb7Eu_Uhc-25" value="&lt;div&gt;Browser&lt;/div&gt;&lt;div&gt;Automation&lt;/div&gt;" style="rounded=1;whiteSpace=wrap;html=1;strokeWidth=2;fontSize=16;glass=0;fontStyle=3;strokeColor=#000000;fontColor=#0000FF;" vertex="1" parent="1">
          <mxGeometry x="697" width="130" height="80" as="geometry" />
        </mxCell>
        <mxCell id="J9xpBMAO4fcrb7Eu_Uhc-38" style="edgeStyle=orthogonalEdgeStyle;rounded=0;orthogonalLoop=1;jettySize=auto;html=1;entryX=0.5;entryY=0;entryDx=0;entryDy=0;curved=1;strokeWidth=2;dashed=1;exitX=0.5;exitY=1;exitDx=0;exitDy=0;" edge="1" parent="1" source="J9xpBMAO4fcrb7Eu_Uhc-36" target="J9xpBMAO4fcrb7Eu_Uhc-32">
          <mxGeometry relative="1" as="geometry">
            <Array as="points">
              <mxPoint x="1010" y="150" />
              <mxPoint x="1101" y="150" />
            </Array>
          </mxGeometry>
        </mxCell>
        <mxCell id="J9xpBMAO4fcrb7Eu_Uhc-44" style="edgeStyle=orthogonalEdgeStyle;rounded=0;orthogonalLoop=1;jettySize=auto;html=1;entryX=0.75;entryY=0;entryDx=0;entryDy=0;exitX=0.5;exitY=1;exitDx=0;exitDy=0;curved=1;strokeWidth=2;dashed=1;" edge="1" parent="1" source="J9xpBMAO4fcrb7Eu_Uhc-36" target="J9xpBMAO4fcrb7Eu_Uhc-31">
          <mxGeometry relative="1" as="geometry" />
        </mxCell>
        <mxCell id="J9xpBMAO4fcrb7Eu_Uhc-36" value="&lt;div&gt;Batch Processing&lt;br&gt;&lt;/div&gt;&lt;div&gt;+&lt;/div&gt;Multi-threading" style="rounded=1;whiteSpace=wrap;html=1;strokeWidth=2;fontSize=16;glass=0;fontStyle=3;strokeColor=#000000;fontColor=#0000FF;" vertex="1" parent="1">
          <mxGeometry x="910" width="200" height="80" as="geometry" />
        </mxCell>
        <mxCell id="J9xpBMAO4fcrb7Eu_Uhc-43" style="edgeStyle=orthogonalEdgeStyle;rounded=0;orthogonalLoop=1;jettySize=auto;html=1;entryX=0.5;entryY=0;entryDx=0;entryDy=0;curved=1;strokeWidth=2;dashed=1;" edge="1" parent="1" source="J9xpBMAO4fcrb7Eu_Uhc-39" target="J9xpBMAO4fcrb7Eu_Uhc-40">
          <mxGeometry relative="1" as="geometry" />
        </mxCell>
        <mxCell id="J9xpBMAO4fcrb7Eu_Uhc-39" value="&lt;div&gt;Music Theory&lt;/div&gt;&lt;div&gt;+&lt;/div&gt;&lt;div&gt;MuseCoco Data Format&lt;/div&gt;" style="rounded=1;whiteSpace=wrap;html=1;strokeWidth=2;fontSize=16;glass=0;fontStyle=3;strokeColor=#000000;fontColor=#0000FF;" vertex="1" parent="1">
          <mxGeometry x="1196" width="210" height="80" as="geometry" />
        </mxCell>
        <mxCell id="J9xpBMAO4fcrb7Eu_Uhc-50" style="edgeStyle=orthogonalEdgeStyle;rounded=0;orthogonalLoop=1;jettySize=auto;html=1;entryX=0.5;entryY=0;entryDx=0;entryDy=0;curved=1;strokeWidth=2;dashed=1;" edge="1" parent="1" source="J9xpBMAO4fcrb7Eu_Uhc-47" target="J9xpBMAO4fcrb7Eu_Uhc-45">
          <mxGeometry relative="1" as="geometry" />
        </mxCell>
        <mxCell id="J9xpBMAO4fcrb7Eu_Uhc-51" style="edgeStyle=orthogonalEdgeStyle;rounded=0;orthogonalLoop=1;jettySize=auto;html=1;entryX=0.5;entryY=0;entryDx=0;entryDy=0;curved=1;strokeWidth=2;dashed=1;" edge="1" parent="1" source="J9xpBMAO4fcrb7Eu_Uhc-47" target="J9xpBMAO4fcrb7Eu_Uhc-46">
          <mxGeometry relative="1" as="geometry">
            <Array as="points">
              <mxPoint x="430" y="150" />
              <mxPoint x="601" y="150" />
            </Array>
          </mxGeometry>
        </mxCell>
        <mxCell id="J9xpBMAO4fcrb7Eu_Uhc-47" value="Load the Pages&lt;div&gt;then&lt;/div&gt;&lt;div&gt;Extract Data&lt;/div&gt;" style="rounded=1;whiteSpace=wrap;html=1;strokeWidth=2;fontSize=16;glass=0;fontStyle=3;strokeColor=#000000;fontColor=#0000FF;" vertex="1" parent="1">
          <mxGeometry x="350" width="160" height="80" as="geometry" />
        </mxCell>
      </root>
    </mxGraphModel>
  </diagram>
</mxfile>
